<svg width="1024" height="1024" viewBox="0 0 1024 1024" fill="none" xmlns="http://www.w3.org/2000/svg">
<g clip-path="url(#clip0_833_1347)">
<rect width="1024" height="1024" rx="172" fill="white"/>
<path d="M0 -446.565V689H1039L1018.19 -543L0 -446.565Z" fill="#539DC1"/>
<path d="M3 -171.565C19.5568 -177.893 56.1196 -175.769 69.9169 -116.651C83.7142 -57.5328 100.041 -29.1942 106.48 -22.4146C126.946 -30.7761 174.362 -42.4821 200.301 -22.4146C226.24 -2.34705 223.067 27.5283 218.238 39.9575C242.613 34.5338 295.227 32.2288 310.68 66.3978C326.133 100.567 336.435 133.968 339.654 146.397C359.2 143.911 403.398 143.956 423.818 164.024C444.238 184.091 463.14 217.13 470.039 231.142C488.205 217.356 535.024 189.379 576.968 187.752C618.911 186.125 662.511 207.865 679.068 218.938C682.287 187.978 702.799 125.109 759.092 121.312C764.611 91.4823 784.479 27.4831 819.8 10.1274C855.121 -7.22833 886.487 2.89583 897.755 10.1274C906.033 -15.409 929.489 -65.5327 957.083 -61.7361C984.678 -57.9396 1013.19 -41.6234 1024 -33.9399V218.938L603.872 703H521.089L3 199.955V-171.565Z" fill="#2B6995"/>
<path d="M0.962402 169.119C12.8086 156.717 51.4916 137.495 111.455 159.818C171.418 182.141 169.609 220.497 161.209 236.885C176.285 235.335 209.67 236.221 222.593 252.166C235.516 268.111 240.901 311.96 241.978 331.891C261.793 322.811 309.178 314.485 340.193 353.816C371.209 393.147 371.209 419.368 367.332 427.562C377.885 422.468 401.319 418.393 410.624 442.842C419.929 467.291 414.501 492.006 410.624 501.307C424.839 498.207 456.63 497.853 470.07 521.239C483.51 544.625 492.901 592.549 495.916 613.587C498.932 632.19 504.962 672.052 504.962 682.682C504.962 693.312 168.962 687.112 0.962402 682.682V169.119Z" fill="#225377"/>
<path d="M1024 207.253C1010.02 196.417 971.858 182.872 931.074 215.38C890.289 247.888 873.21 293.038 869.768 311.549C849.978 307.486 792.066 305.005 769.744 316.967C739.413 333.221 732.314 332.544 698.758 392.142L698.364 392.029C684.309 388.005 670.747 384.121 642.615 395.528C620.029 409.073 606.864 417.607 598.087 476.121C589.311 534.635 601.314 639.113 608.413 684.037L1018.84 703L1024 207.253Z" fill="#225377"/>
<path d="M726.618 686.363C721.455 673.343 716.292 644.409 736.945 632.835C757.598 621.262 767.065 620.297 769.216 621.262C768.356 600.526 778.123 552.977 824.077 528.673C870.03 504.368 893.566 518.546 899.59 528.673C907.335 508.901 933.668 470.805 977.04 476.592C1020.41 482.378 1036.42 503.597 1039 513.482L1034.48 703L726.618 686.363Z" fill="#193D57"/>
<path d="M9.9624 688.552L375.097 681.915C382.181 662.667 388.621 620.455 357.71 605.588C326.799 590.721 292.883 593.198 279.789 596.296C276.998 579.26 265.879 543.73 243.726 537.889C221.573 532.048 183.836 541.208 167.737 546.517C162.799 537.447 146.872 517.579 122.658 510.677C92.3914 502.049 56.3287 511.34 9.9624 537.889V688.552Z" fill="#193D57"/>
<path fill-rule="evenodd" clip-rule="evenodd" d="M442.248 499.612C442.541 499.713 442.849 499.818 443.171 499.929L443.192 499.936C442.862 499.823 442.547 499.715 442.248 499.612ZM-12.7088 1186.73L-12.7113 1186.73L-12.7135 1186.74L-12.6955 1186.74C-12.7013 1186.73 -12.7088 1186.73 -12.7088 1186.73Z" fill="#3C3C3C"/>
<path fill-rule="evenodd" clip-rule="evenodd" d="M27.2549 1432.29C28.7445 1432.87 29.8721 1434.32 32.292 1437.44C34.4059 1440.17 37.5058 1444.16 42.6943 1449.96C65.9403 1475.91 100.751 1486.8 135.961 1489C137.638 1493.04 139.407 1497.01 141.178 1500.99L141.181 1501C142.791 1504.61 144.402 1508.23 145.945 1511.9C141.715 1517.25 137.871 1522.35 134.207 1528.07C95.574 1588.36 63.9279 1651.6 32.8164 1715.66C15.9407 1749.78 -0.320831 1784.18 -15.9599 1818.84C-16.7431 1820.59 -20.0633 1828.89 -24.0841 1838.94L-24.0893 1838.95C-31.5528 1857.61 -41.4271 1882.29 -41.9736 1882.33C-46.7823 1882.75 -51.6118 1883.02 -56.4441 1883.28C-66.548 1883.84 -76.664 1884.39 -86.628 1886.36C-146.981 1898.28 -203.987 1929.37 -243.541 1975.12C-275.51 2012.08 -285.688 2061.99 -240.388 2093.49C-184.552 2132.31 -102.05 2123.49 -36.9807 2116.53L-34.6691 2116.28C-18.8253 2114.47 -3.46951 2111.01 11.8028 2107.56C18.9508 2105.94 26.0805 2104.33 33.2334 2102.9C73.6454 2094.44 125.478 2081.29 153.086 2049.56C166.436 2034.21 165.394 2005.73 163.962 1987.2C163.678 1983.51 163.513 1980.31 163.36 1977.33C162.923 1968.8 162.58 1962.11 159.802 1951.41C163.6 1942.37 168.697 1934.64 174.044 1926.53L174.859 1925.29L175.459 1924.38C193.451 1896.99 202.589 1865.54 211.673 1834.28C217.04 1815.81 222.388 1797.41 229.531 1779.94C245.762 1740.27 267.548 1701.56 288.908 1663.61C294.381 1653.89 299.826 1644.21 305.143 1634.58C308.861 1627.86 313.145 1621.3 317.423 1614.75C320.844 1609.52 324.26 1604.29 327.38 1598.98C348.357 1596.93 367.414 1590.27 386.839 1583.49L386.934 1583.46L387.084 1583.4C387.898 1583.12 388.713 1582.83 389.529 1582.55C391.202 1581.97 392.878 1581.38 394.56 1580.8C398.225 1579.54 402.329 1577.91 406.667 1576.19C419.628 1571.04 434.679 1565.06 446.357 1565.67C466.042 1566.69 485.349 1571.97 504.7 1577.27C530.269 1584.26 555.913 1591.28 582.603 1588.51C586.385 1597.35 592.277 1603.28 598.313 1609.35C601.819 1612.88 605.375 1616.45 608.593 1620.68C610.927 1623.81 613.304 1626.95 615.69 1630.1C623.115 1639.9 630.62 1649.82 637.149 1660.03C672.937 1716 692.183 1778.17 711.455 1840.43C716.734 1857.48 722.015 1874.54 727.639 1891.49C730.238 1899.31 733.496 1905.82 736.552 1911.92C743.252 1925.3 748.98 1936.74 744.656 1955.89C744.089 1958.4 744.498 1963.03 744.866 1967.2C745.076 1969.58 745.273 1971.81 745.269 1973.42C745.97 1977.85 746.588 1982.55 747.225 1987.39C751.413 2019.21 756.423 2057.28 791.036 2068.51C796.718 2070.85 802.672 2072.53 808.614 2074.21C812.792 2075.39 816.964 2076.57 821.032 2077.97C861.796 2092.02 903.581 2097.77 946.005 2103.6L946.136 2103.62C950.182 2104.18 954.233 2104.74 958.29 2105.3C1026.84 2114.85 1101.03 2120.11 1167.4 2096.88C1180.44 2092.31 1200.45 2078.8 1206.07 2065.79C1210.97 2053.07 1209.36 2036.94 1203.96 2024.52C1178.14 1965.22 1120.22 1928.19 1060.15 1906.08C1046.4 1901.02 1027.17 1896.21 1012.63 1892.57L1012.34 1892.49C1009.2 1891.71 1004.34 1891.6 999.404 1891.49C992.142 1891.32 984.731 1891.15 982.461 1888.83C978.56 1880.13 975.36 1871.37 972.169 1862.63L972.167 1862.62C966.688 1847.62 961.236 1832.69 952.311 1818.28C948.359 1811.9 944.944 1804.84 941.498 1797.7C937.208 1788.83 932.87 1779.85 927.384 1771.97C921.99 1760.35 916.361 1749.9 910.596 1739.2L910.593 1739.2C908.101 1734.57 905.584 1729.9 903.05 1725.06L845.223 1616.55C842.898 1612.28 840.625 1608.04 838.37 1603.84C826.832 1582.36 815.77 1561.76 800.561 1541.49C794.035 1531.13 779.97 1509.41 775.911 1505.49L803.812 1458.87C806.413 1474.57 831.114 1494.72 843.138 1502.83C874.433 1510.34 923.368 1497.87 951.545 1482.23C983.494 1464.52 1002.43 1435.17 1013.51 1401.84C1059.71 1387.59 1119.53 1327.42 1153.25 1292.98C1158.3 1286.82 1162.69 1278.95 1166.8 1271.57L1166.8 1271.56C1168.38 1268.73 1169.92 1265.97 1171.43 1263.41C1180.62 1247.91 1179.2 1217.27 1172.85 1201.4C1161.41 1172.81 1135.34 1146.85 1112.56 1126.9C1080.44 1098.78 1026.46 1062.97 990.241 1040.51C991.12 1033.97 995.362 1029.84 1001 1024.35C1003.16 1022.24 1005.53 1019.93 1008 1017.2C1008.44 1016.77 1008.84 1016.42 1009.23 1016.08C1011.05 1014.49 1012.46 1013.25 1015.61 1006.16C1017.76 998.63 1020.48 991.495 1023.2 984.377C1026.36 976.097 1029.51 967.84 1031.74 959.014C1032.52 955.939 1033.31 952.849 1034.11 949.746C1038.72 931.71 1043.43 913.283 1046.83 895.219C1048.12 888.372 1049.02 881.462 1049.92 874.554L1049.93 874.547C1050.85 867.453 1051.78 860.361 1053.12 853.344C1053.28 852.544 1053.45 851.669 1053.63 850.728C1056.57 835.479 1062.89 802.797 1060.44 791.345C1059.47 786.787 1060.32 782.777 1061.2 778.631C1062.46 772.691 1063.79 766.474 1059.88 757.97C1057.4 748.858 1057.12 731.385 1060.04 722.234C1056.08 679.426 1051.18 646.771 1034.45 606.009C994.122 507.76 895.599 460.548 790.647 461.327C723.346 461.828 661.291 475.681 598.656 489.664C561.228 498.019 523.594 506.421 484.509 512.048C480.28 512.656 453.918 503.615 443.207 499.941L443.192 499.936L443.171 499.929L442.248 499.612C441.351 499.305 440.599 499.048 440.02 498.852L386.752 481.182C378.625 478.518 370.532 475.813 362.465 473.117C270.102 442.244 181.239 412.542 86.2358 459.367C47.4877 478.465 18.7748 496.8 -8.80975 530.204C-12.1303 534.224 -20.1778 543.098 -23.99 546.429C-45.2433 571.671 -89.0182 641.049 -94.0911 716.623C-99.164 792.197 -92.8228 838.559 -89.0182 852.294L-61.1519 1002.08C-57.861 1004.79 -55.1993 1015.57 -53.173 1023.78C-52.4946 1026.53 -51.8874 1028.99 -51.3517 1030.76C-53.4736 1032.24 -55.3532 1033.71 -57.252 1035.2C-59.6003 1037.04 -61.978 1038.9 -64.8793 1040.82C-67.465 1043.57 -67.606 1043.71 -70.7508 1045.83L-72.0284 1045.09C-116.161 1072.25 -204.173 1139.54 -203.158 1191.41C-203.504 1204.91 -202.362 1238.28 -195.026 1263.8C-187.691 1289.32 -153.426 1316.14 -137.211 1326.37L-9.36124 1386.48C0.173157 1398.78 20.8446 1425.15 27.2549 1432.29ZM-158.7 1269.23C-175.26 1260.66 -189.052 1224.96 -185.857 1207.4C-173.365 1213.83 -174.688 1218.49 -177.745 1229.25C-178.084 1230.44 -178.443 1231.7 -178.808 1233.06C-174.807 1244.25 -171.005 1249.91 -166.734 1256.26C-164.257 1259.94 -161.623 1263.86 -158.7 1269.23ZM-12.6035 1215.2C-20.0419 1211.25 -27.5375 1207.4 -35.0882 1203.65C-31.6916 1201.08 -29.3457 1198.67 -27.1434 1196.41C-23.6037 1192.77 -20.4348 1189.51 -13.8698 1186.6L-12.7135 1186.74C-12.7712 1187.18 -5.75488 1205.99 -1.92789 1216.25C-0.618469 1219.76 0.317566 1222.27 0.469208 1222.7C-2.71973 1221.05 -6.10678 1219.04 -9.36124 1217.12L-9.37949 1217.11C-10.4734 1216.46 -11.5523 1215.82 -12.6035 1215.2ZM-12.7135 1186.74L-12.7113 1186.73L-12.7088 1186.73C-12.7088 1186.73 -12.7013 1186.73 -12.6955 1186.74L-12.7135 1186.74ZM942.193 1265.06C929.909 1259.54 890.891 1251.26 877.369 1250.3C879.724 1246.33 882.864 1239.33 885.847 1232.68L885.852 1232.67C887.836 1228.25 889.751 1223.98 891.32 1220.86C893.727 1216.07 896.343 1210.08 899.132 1203.69L899.134 1203.69C905.848 1188.31 913.56 1170.65 921.757 1161.97C921.43 1161.87 984.434 1219.88 992.712 1224.72C974.29 1232 962.727 1243.26 949.417 1256.22L948.385 1257.22L947.491 1258.09C947.093 1258.48 946.694 1258.87 946.292 1259.26C945.855 1260.11 945.553 1260.79 945.302 1261.35C944.56 1263.01 944.255 1263.69 942.193 1265.06ZM-34.4847 1014.75C-35.4993 993.889 -58.594 871.921 -70.0145 813.544C-51.4074 835.218 -7.85199 880.284 17.5125 887.154C42.877 894.025 91.4923 931.745 112.629 949.746C149.408 991.452 223.472 1078.79 225.501 1094.49C226.493 1102.17 232.53 1117.77 239.286 1135.23C249.802 1162.41 262.06 1194.1 259.743 1207.4C256.7 1224.88 248.329 1261.28 244.525 1277.29C232.265 1271.16 200.898 1258.4 173.504 1256.44C176.041 1252.96 177.816 1243.68 164.627 1234.35C151.437 1225.03 143.912 1189.57 141.799 1173.01L47.9499 1023.78L-12.6035 985.302L-34.4847 973.034V1014.75Z" fill="#3C3C3C"/>
<path d="M-70.0145 813.544C-58.594 871.921 -35.4993 993.889 -34.4847 1014.75V973.034L-12.6035 985.302L47.9499 1023.78L141.799 1173.01C143.912 1189.57 151.437 1225.03 164.627 1234.35C177.816 1243.68 176.041 1252.96 173.504 1256.44C200.898 1258.4 232.265 1271.16 244.525 1277.29C248.329 1261.28 256.7 1224.88 259.743 1207.4C262.06 1194.1 249.802 1162.41 239.286 1135.23C232.53 1117.77 226.493 1102.17 225.501 1094.49C223.472 1078.79 149.408 991.452 112.629 949.746C91.4923 931.745 42.877 894.025 17.5125 887.154C-7.85199 880.284 -51.4074 835.218 -70.0145 813.544Z" fill="white"/>
<path d="M8.37323 544.285C45.6016 497.904 110.449 465.455 170.365 458.194C225.594 451.502 273.233 467.589 324.417 483.955L430.044 518.21C468.493 530.592 505.092 544.521 546.505 539.844C549.193 539.541 560.21 538.543 562.469 538.795C577.881 540.51 607.05 534.567 588.06 514.046C685.633 492.358 798.588 463.862 895.302 501.264C905.216 505.097 915.62 508.705 924.798 513.946C983.524 547.496 1015.7 600.538 1029.63 664.552C1045.64 738.207 1041.54 816.439 1024.63 889.887C1022 898.324 1017.93 906.682 1014.87 914.937C989.492 983.658 952.607 1048.28 916.192 1111.99C893.258 1152.11 862.924 1200.24 856.077 1245.44C855.423 1248.65 855.045 1253.45 852.704 1255.41C848.555 1256.26 840.532 1256.13 838.845 1256.75C816.116 1265.09 800.325 1274.19 786.661 1294.2C778.065 1306.79 781.53 1311.55 781.816 1325.15C787.141 1330.95 790.718 1333.43 797.157 1338.22C781.336 1350.99 782.256 1354.35 780.161 1374.2C788.817 1385.68 790.258 1387.18 802.788 1393.85C789.236 1411.29 790.82 1413.67 793.181 1433.94C789.512 1437.1 787.141 1437.06 783.053 1440.95C780.314 1443.67 769.93 1463.71 765.627 1469.99C744.001 1501.53 720.587 1532.53 684.417 1549.54C673.563 1554.65 679.409 1570.48 690.069 1571.04C703.141 1569.06 722.355 1549.46 733.689 1542.05C744.144 1534.98 754.293 1524.7 759.403 1513.31C760.589 1516.05 762.561 1521.23 764.084 1523.72C781.908 1552.9 801.122 1582.72 818.109 1612.29C832.979 1638 847.073 1664.12 860.38 1690.61C864.958 1699.67 868.617 1708.94 873.482 1717.96C891.827 1751.92 912.125 1786.95 928.569 1821.77C931.809 1827.38 937.134 1835.35 939.566 1840.75C946.996 1857.25 953.18 1876.97 961.703 1892.92C949.276 1894.39 940.271 1896.16 928.354 1899.92C914.905 1903.79 884.244 1915.02 877.294 1926.82C875.72 1929.5 875.373 1932.2 876.476 1935.13C877.437 1937.71 880.35 1940.72 883.181 1941.26C891.51 1942.84 908.374 1929.76 916.867 1926.76C944.268 1917.1 973.15 1910.67 1002.51 1912.97C1038.12 1915.76 1095.27 1942.66 1123.87 1962.92C1137.32 1972.45 1149.13 1983.59 1160.35 1995.47C1169.74 2005.4 1188.41 2035.19 1187.34 2048.76C1186.74 2056.31 1182.22 2062.29 1176.21 2066.76C1132.1 2099.64 1016.56 2092.17 962.96 2084.31C913.3 2077.02 869.179 2069.65 820.96 2054.85C811.414 2051.93 800.826 2049.69 792.139 2044.78C788.306 2042.62 785.189 2039.69 782.593 2036.23C774.039 2024.82 766.598 1980.12 767.498 1965.61C773.333 1972.26 784.821 1983.46 794.172 1974.36C795.757 1972.82 796.615 1970.73 796.564 1968.56C796.472 1962.99 782.573 1951.08 778.076 1944.01C740.843 1885.52 732.187 1817.3 705.624 1754.69C701.413 1744.75 699.584 1732.59 695.179 1722.56C679.082 1686.91 659.316 1649.53 634.103 1619C624.301 1607.12 620.346 1598.41 608.46 1587.04C611.587 1582.91 618.026 1581.1 616.789 1575.49C612.814 1557.45 580.242 1569.21 568.294 1567.64C544.45 1564.98 522.283 1559.78 499.338 1553.26C485.162 1549.25 463.158 1542.87 448.513 1543.35C415.971 1544.45 384.864 1561.7 354.678 1571.64C343.575 1575.29 330.247 1575.22 318.657 1576.4C304.599 1578.14 298.061 1569.38 289.339 1578.3C285.525 1587.38 294.828 1595.05 302.017 1599.09C289.593 1617.22 278.269 1637.59 266.986 1656.5C263.336 1662.61 260.132 1671.4 256.41 1677.95C243.687 1700.31 226.912 1730.66 216.805 1754.14C208.766 1776.04 199.184 1797.55 192.566 1819.9C180.065 1862.11 168.435 1905.09 138.379 1939.28C131.612 1946.98 114.142 1954.26 116.359 1964.79C116.919 1967.44 120.197 1970.8 122.696 1971.84C127.46 1974.51 139.344 1965.06 140.367 1968.6C143.836 1984.38 144.199 2009.8 140.594 2025.28C137.868 2036.99 121.733 2050.46 111.032 2055.39C103.873 2058.68 93.7064 2061.09 85.893 2065.6C80.6643 2068.62 66.6697 2071.13 60.5846 2073.77C-20.0902 2094.03 -118.406 2112.72 -200.196 2090.21C-219.043 2085.02 -236.489 2070.36 -244.623 2053.74C-246.721 2049.43 -248.453 2044.96 -249.803 2040.37C-240.837 1994.71 -217.347 1975.18 -179.22 1948.64C-133.426 1916.75 -75.247 1897.83 -18.13 1907.42C-3.12764 1909.94 18.3145 1921.13 28.358 1931.95C31.2933 1935.15 35.1708 1945.76 39.8517 1946.11C71.8217 1948.48 44.3292 1914.28 35.9762 1907.25C35.0052 1906.44 34.0108 1905.65 32.9939 1904.9C24.2607 1900.73 13.0092 1895.29 4.05313 1892.06C-4.03723 1889.13 -9.96295 1888.09 -18.41 1884.63C-11.3815 1868.15 -5.26265 1849.47 2.10004 1832.91C14.1978 1805.72 26.7084 1779.19 39.866 1752.48C46.591 1740.29 51.7696 1726.61 58.0561 1713.96C86.0484 1657.59 115.088 1601.53 147.876 1547.61C163.832 1521.38 178.11 1515.92 158.456 1485.37C178.144 1485.46 190.015 1471.44 203.537 1460.61C222.16 1445.67 235.665 1437.13 236.98 1410.58C249.183 1398.91 263.464 1385.81 260.222 1367.05C259.047 1360.23 253.967 1352.8 247.792 1349.23C269.182 1327.14 278.945 1292.81 242.619 1278.85C244.579 1252.63 243.802 1207.2 239.985 1181.83C225.809 1087.63 164.708 1001.45 89.1983 942.48C83.3022 937.876 78.9698 932.402 73.2281 927.744C41.117 904.388 -5.67046 882.59 -33.1702 855.322C-37.9553 851.718 -47.9752 846.009 -51.7823 842.144C-59.6928 834.114 -70.9044 812.392 -71.4553 801.159C-73.0077 769.457 -66.1203 732.658 -61.5621 701.198C-59.3616 686.004 -56.5746 685.128 -57.0846 668.306L-48.7888 658.961C-54.6409 628.075 -13.8467 564.872 8.37323 544.285Z" fill="white"/>
<path d="M8.37321 544.287C10.2486 552.805 -3.73986 583.234 -7.29549 592.865C-18.2373 621.652 -27.2823 651.079 -34.3762 680.972C-39.566 703.473 -39.4966 717.243 -39.6775 740.197C-39.7132 744.796 -43.7247 753.642 -43.5979 758.95C-43.1707 776.777 -43.9229 798.358 -40.9355 815.697C-38.5859 829.33 7.89349 980.102 9.90382 993.89C5.11868 990.287 -40.8228 968.311 -44.6299 964.446C-52.5403 956.416 -70.9044 812.394 -71.4553 801.16C-73.0078 769.458 -66.1203 732.659 -61.5621 701.199C-59.3617 686.005 -61.7896 695.008 -57.3121 668.776C-57.3121 668.776 -54.2734 662.015 -53.5074 657.734C-42.0934 593.938 -13.8467 564.874 8.37321 544.287Z" fill="#C9C9CC"/>
<path d="M777.39 640.026C778.287 639.894 778.749 640.493 778.749 640.493C778.749 640.493 800.692 642.557 812.159 643.813C846.509 647.88 876.394 668.495 891.55 698.583C906.431 727.646 922.865 796.044 869.096 794.939C863.25 792.044 856.188 788.758 851.098 784.877C824.924 764.922 821.143 729.986 788.775 716.797C778.258 712.512 768.365 711.309 757.205 709.369C769.817 746.091 776.869 783.236 744.153 812.648C773.036 809.225 805.404 810.228 834.123 815.111C843.331 816.676 893.41 820.115 875.535 838.039C867.972 845.211 826.938 834.757 816.503 833.401C765.35 829.549 710.365 834.16 666.551 863.119C682.535 870.107 706.175 899.788 697.324 916.574C691.468 927.671 679.009 923.318 674.768 911.888C677.425 911.875 644.843 924.608 641.358 925.755C568.099 949.891 484.855 945.026 409.858 931.443C389.786 927.683 338.794 916.53 321.278 908.377L320.63 909.287C313.558 919.06 297.95 939.174 291.346 916.624C289.01 908.646 348.335 833.362 348.902 874.771C348.975 880.225 341.549 886.669 337.189 890.412C354.902 897.652 377.425 901.972 396.47 906.421C474.032 924.546 564.604 929.204 640.765 903.333C646.151 901.502 660.337 895.207 663.894 890.809C664.578 882.798 652.866 879.163 652.171 871.928C653.357 867.948 653.592 867.651 655.912 864.097C652.713 860.921 649.606 859.689 649.504 854.792C649.33 845.847 660.736 840.441 667.736 837.756C648.788 830.296 631.117 820.426 626.436 799.686C625.445 795.286 624.965 791.512 622.185 787.796L620.846 787.958C615.542 795.226 613.273 803.906 606.006 807.75C598.106 808.021 595.326 800.651 591.779 794.592C600.753 766.668 624.116 734.854 646.652 715.875C659.182 705.323 673.531 690.617 687.666 682.345L686.787 680.537C690.742 677.609 692.95 675.869 697.457 673.61L699.44 674.544C704.274 672.209 708.29 670.03 712.808 667.109C732.206 654.568 776.493 640.159 777.39 640.026Z" fill="black"/>
<path d="M686.789 680.537C690.744 677.609 692.951 675.868 697.458 673.61L699.441 674.544C695.302 677.472 692.032 679.681 687.668 682.345L686.789 680.537Z" fill="white"/>
<path d="M202.065 647.127C206.751 646.958 211.728 647.593 216.261 647.538C250.193 646.85 277.747 660.84 305.25 677.688C331.043 693.489 351.961 705.181 369.992 730.126C374.885 736.894 379.117 744.878 383.454 752.182C391.586 765.879 407.621 782.682 404.944 799.357C403.942 804.972 396.9 806.428 391.902 804.012C383.336 799.863 381.021 794.667 377.577 786.618C369.453 815.192 356.311 828.827 335.827 838.592C333.285 839.803 342.322 861.313 315.91 856.274C290.656 851.457 292.399 849.013 269.622 842.478C263.011 840.63 251.183 839.217 243.968 837.839C206.776 831.631 177.011 829.297 140.095 837.867C135.36 839.107 131.179 840.444 127.002 837.04C124.819 835.269 123.479 832.711 123.292 829.963C121.54 804.474 209.769 811.533 226.292 811.995C207.423 774.178 212.173 761.502 226.111 720.664C219.834 725.774 209.898 732.028 202.136 737.867C183.916 750.967 146.852 794.262 124.355 794.556C62.1002 795.372 88.8221 711.23 114.412 686.777C143.123 659.342 166.802 650.673 202.065 647.127Z" fill="black"/>
<path d="M221.671 527.54C224.981 527.105 228.65 527.35 231.992 527.402C280.996 528.168 375.153 591.459 408.582 625.606C418.762 636.007 437.71 663.059 441.134 676.836C442.616 682.815 441.798 690.223 441.666 696.385C429.227 717.784 411.669 724.313 387.682 718.226C358.388 709.032 345.643 696.135 320.612 682.534L252.402 645.932C227.542 632.677 205.582 622.066 182.804 604.966C173.216 598.103 165.814 585.621 164.53 573.931C161.083 542.52 196.218 530.043 221.671 527.54Z" fill="black"/>
<path d="M558.83 700.474C559.014 694.489 558.748 687.72 560.629 681.997C570.9 650.782 596.809 623.216 621.603 601.688C628.992 595.274 637.639 589.862 645.774 584.352C676.803 563.356 707.678 545.627 744.819 537.021C753.741 534.954 763.185 532.912 772.434 533.597C786.385 534.631 805.711 546.37 814.306 556.944C818.589 562.203 823.995 579.786 822.983 586.362C821.277 597.476 714.832 662.286 697.458 673.609C692.951 675.868 690.743 677.608 686.788 680.536C653.552 700.519 589.511 752.472 558.83 700.474Z" fill="black"/>
<path d="M-34.0774 1015.16L-34.1274 1013.67C-34.6109 1002.35 -48.2375 967.874 -46.3161 961.023C-39.5779 962.266 -28.3029 971.764 -21.3326 975.375C29.2649 1001.59 73.1078 1036.53 105.137 1082.88C127.044 1114.58 139.688 1142.8 151.508 1178.64C158.569 1200.06 164.791 1210.89 163.798 1234.1C136.513 1226.56 118.687 1228.55 92.2422 1238.08C76.2812 1203.75 62.1394 1168.65 49.8741 1132.93C45.046 1119.06 42.0453 1104.94 37.5096 1090.93C34.3464 1081.15 19.3226 1080.51 16.5703 1089.65C14.5007 1096.53 19.9041 1110.93 23.0274 1117.58C13.2119 1127.91 4.98865 1136.46 -5.42172 1146.16C-25.8592 1115.17 -90.9144 1121.32 -122.647 1114.83L-123.946 1114.56C-89.6031 1084.35 -52.3921 1059.97 -15.8607 1032.66C-11.283 1029.24 -11.2963 1022.11 -16.2624 1019.04C-21.2989 1015.78 -28.1701 1015.41 -34.0774 1015.16Z" fill="#C9C9CC"/>
<rect x="960.67" y="639.837" width="101.993" height="470.803" fill="white"/>
<rect x="-8.75781" y="910.085" width="112.526" height="189.112" fill="white"/>
</g>
<defs>
<clipPath id="clip0_833_1347">
<rect width="1024" height="1024" rx="172" fill="white"/>
</clipPath>
</defs>
</svg>
